<svg xmlns="http://www.w3.org/2000/svg" xmlns:xlink="http://www.w3.org/1999/xlink" version="1.1" x="0px" y="0px" viewBox="0 0 16 20" style="enable-background:new 0 0 16 16;" xml:space="preserve"><g><path d="M14.854,3.974c-0.194-0.194-0.513-0.194-0.707,0l-1.768,1.768c-0.194,0.194-0.513,0.195-0.707,0   c-0.194-0.194-0.194-0.513,0-0.707l1.768-1.768c0.194-0.194,0.194-0.513,0-0.707s-0.513-0.194-0.707,0l-1.768,1.768   c-0.194,0.194-0.513,0.194-0.707,0c-0.194-0.194-0.194-0.513,0-0.707l1.768-1.768c0.195-0.195,0.195-0.513,0-0.707   c-0.194-0.194-0.513-0.194-0.707,0L8.49,3.974c-0.781,0.781-0.781,2.047,0,2.828L9.197,7.51c0.781,0.781,2.047,0.781,2.828,0   l2.828-2.828C15.049,4.487,15.049,4.169,14.854,3.974z"/><path d="M1.686,1.272l-0.083,0.25C1.004,3.319,1.472,5.3,2.811,6.639l1.076,1.076c0.878,0.878,1.949,1.54,3.127,1.933l0.33,0.11   l4.95,4.95c0.391,0.391,1.024,0.391,1.414,0c0.391-0.391,0.391-1.024,0-1.414L1.686,1.272z"/><path d="M2,11.879l-0.707,0.707c-0.391,0.391-0.391,1.024,0,1.414L2,14.707c0.391,0.391,1.024,0.391,1.414,0L4.121,14l2.334-3.501   c-0.485-0.178-0.954-0.398-1.402-0.656L2,11.879z"/></g><text x="0" y="31" fill="#000000" font-size="5px" font-weight="bold" font-family="'Helvetica Neue', Helvetica, Arial-Unicode, Arial, Sans-serif">Created by icon 54</text><text x="0" y="36" fill="#000000" font-size="5px" font-weight="bold" font-family="'Helvetica Neue', Helvetica, Arial-Unicode, Arial, Sans-serif">from the Noun Project</text></svg>